<svg width="24" height="24" viewBox="0 0 24 24" fill="none" xmlns="http://www.w3.org/2000/svg">
<g clip-path="url(#clip0_1483_550)">
<path d="M17.862 0.000976562H5.46797C2.44809 0.000976562 0 2.44907 0 5.46895V17.863C0 20.8829 2.44809 23.331 5.46797 23.331H17.862C20.8819 23.331 23.33 20.8829 23.33 17.863V5.46895C23.33 2.44907 20.8819 0.000976562 17.862 0.000976562Z" fill="#B9BABD"/>
<path d="M17.862 0.000976562H5.46797C2.44809 0.000976562 0 2.44907 0 5.46895V17.863C0 20.8829 2.44809 23.331 5.46797 23.331H17.862C20.8819 23.331 23.33 20.8829 23.33 17.863V5.46895C23.33 2.44907 20.8819 0.000976562 17.862 0.000976562Z" fill="#B9BABD"/>
<path d="M11.6649 2.55273C9.1899 2.55273 8.87923 2.56358 7.9072 2.60778C6.937 2.65225 6.27474 2.80581 5.69532 3.03118C5.09585 3.26393 4.58742 3.57534 4.0809 4.08203C3.57393 4.58864 3.26253 5.09707 3.02905 5.69627C2.80304 6.27587 2.6493 6.93841 2.60564 7.90815C2.56217 8.88027 2.55078 9.19103 2.55078 11.6661C2.55078 14.1412 2.56172 14.4509 2.60583 15.4229C2.65048 16.3931 2.80404 17.0553 3.02923 17.6348C3.26216 18.2342 3.57356 18.7427 4.08026 19.2492C4.58669 19.7561 5.09512 20.0683 5.69413 20.301C6.27401 20.5264 6.93637 20.68 7.90638 20.7244C8.8785 20.7686 9.1889 20.7795 11.6638 20.7795C14.139 20.7795 14.4487 20.7686 15.4207 20.7244C16.3909 20.68 17.0539 20.5264 17.6338 20.301C18.233 20.0683 18.7407 19.7561 19.247 19.2492C19.754 18.7427 20.0653 18.2342 20.2989 17.635C20.5229 17.0553 20.6767 16.3929 20.7223 15.4231C20.766 14.451 20.7773 14.1412 20.7773 11.6661C20.7773 9.19103 20.766 8.88045 20.7223 7.90834C20.6767 6.93814 20.5229 6.27597 20.2989 5.69654C20.0653 5.09707 19.754 4.58864 19.247 4.08203C18.7402 3.57515 18.2332 3.26375 17.6333 3.03127C17.0523 2.80581 16.3897 2.65216 15.4195 2.60778C14.4473 2.56358 14.1379 2.55273 11.6621 2.55273H11.6649ZM10.8473 4.19504C11.09 4.19467 11.3608 4.19504 11.6649 4.19504C14.0982 4.19504 14.3866 4.20379 15.3475 4.24744C16.236 4.28809 16.7183 4.43654 17.0395 4.5613C17.4648 4.72643 17.768 4.92392 18.0868 5.24297C18.4058 5.56194 18.6032 5.86568 18.7688 6.291C18.8935 6.61179 19.0422 7.09406 19.0826 7.98261C19.1263 8.94333 19.1358 9.23186 19.1358 11.664C19.1358 14.0962 19.1263 14.3848 19.0826 15.3454C19.042 16.234 18.8935 16.7162 18.7688 17.0371C18.6036 17.4624 18.4058 17.7653 18.0868 18.084C17.7679 18.403 17.465 18.6004 17.0395 18.7656C16.7187 18.8909 16.236 19.039 15.3475 19.0797C14.3867 19.1233 14.0982 19.1328 11.6649 19.1328C9.23145 19.1328 8.94302 19.1233 7.98239 19.0797C7.09384 19.0387 6.61157 18.8902 6.29005 18.7654C5.86483 18.6002 5.56099 18.4028 5.24202 18.0839C4.92306 17.7649 4.72567 17.4619 4.56008 17.0364C4.43532 16.7155 4.28668 16.2332 4.24622 15.3447C4.20256 14.384 4.19381 14.0954 4.19381 11.6617C4.19381 9.22803 4.20256 8.94105 4.24622 7.98033C4.28686 7.09179 4.43532 6.60951 4.56008 6.28827C4.7253 5.86295 4.92306 5.55921 5.24212 5.24024C5.56117 4.92128 5.86483 4.72379 6.29014 4.55829C6.61139 4.43299 7.09384 4.2849 7.98239 4.24407C8.82309 4.20607 9.14889 4.19467 10.8473 4.19276V4.19504ZM16.5296 5.70821C15.9258 5.70821 15.436 6.19759 15.436 6.80144C15.436 7.40519 15.9258 7.89503 16.5296 7.89503C17.1333 7.89503 17.6231 7.40519 17.6231 6.80144C17.6231 6.19768 17.1333 5.70784 16.5296 5.70784V5.70821ZM11.6649 6.98598C9.08036 6.98598 6.98485 9.08149 6.98485 11.6661C6.98485 14.2507 9.08036 16.3452 11.6649 16.3452C14.2495 16.3452 16.3443 14.2507 16.3443 11.6661C16.3443 9.08158 14.2493 6.98598 11.6647 6.98598H11.6649ZM11.6649 8.62828C13.3425 8.62828 14.7027 9.98826 14.7027 11.6661C14.7027 13.3438 13.3425 14.7039 11.6649 14.7039C9.98722 14.7039 8.62715 13.3438 8.62715 11.6661C8.62715 9.98826 9.98713 8.62828 11.6649 8.62828Z" fill="#372053"/>
</g>
<defs>
<clipPath id="clip0_1483_550">
<rect width="24" height="24" fill="white" transform="translate(0 0.000976562)"/>
</clipPath>
</defs>
</svg>
