<svg width="24" height="24" viewBox="0 0 24 24" fill="none" xmlns="http://www.w3.org/2000/svg">
<g clip-path="url(#clip0_426_3056)">
<path d="M17.862 0H5.46797C2.44809 0 0 2.44809 0 5.46797V17.862C0 20.8819 2.44809 23.33 5.46797 23.33H17.862C20.8819 23.33 23.33 20.8819 23.33 17.862V5.46797C23.33 2.44809 20.8819 0 17.862 0Z" fill="url(#paint0_radial_426_3056)"/>
<path d="M17.862 0H5.46797C2.44809 0 0 2.44809 0 5.46797V17.862C0 20.8819 2.44809 23.33 5.46797 23.33H17.862C20.8819 23.33 23.33 20.8819 23.33 17.862V5.46797C23.33 2.44809 20.8819 0 17.862 0Z" fill="url(#paint1_radial_426_3056)"/>
<path d="M11.661 2.55078C9.18599 2.55078 8.87532 2.56163 7.9033 2.60583C6.9331 2.6503 6.27084 2.80386 5.69141 3.02923C5.09194 3.26198 4.58351 3.57338 4.077 4.08008C3.57002 4.58669 3.25862 5.09512 3.02514 5.69432C2.79913 6.27392 2.64539 6.93646 2.60174 7.9062C2.55827 8.87831 2.54688 9.18908 2.54688 11.6642C2.54688 14.1392 2.55781 14.4489 2.60192 15.4209C2.64657 16.3911 2.80013 17.0534 3.02532 17.6328C3.25826 18.2323 3.56966 18.7407 4.07636 19.2472C4.58278 19.7542 5.09121 20.0663 5.69023 20.2991C6.27011 20.5244 6.93246 20.678 7.90248 20.7225C8.87459 20.7667 9.18499 20.7775 11.6599 20.7775C14.1351 20.7775 14.4448 20.7667 15.4168 20.7225C16.387 20.678 17.05 20.5244 17.6299 20.2991C18.2291 20.0663 18.7368 19.7542 19.2431 19.2472C19.7501 18.7407 20.0614 18.2323 20.295 17.6331C20.519 17.0534 20.6728 16.3909 20.7184 15.4211C20.762 14.4491 20.7734 14.1392 20.7734 11.6642C20.7734 9.18908 20.762 8.8785 20.7184 7.90638C20.6728 6.93618 20.519 6.27401 20.295 5.69459C20.0614 5.09512 19.7501 4.58669 19.2431 4.08008C18.7363 3.5732 18.2293 3.2618 17.6294 3.02932C17.0484 2.80386 16.3858 2.65021 15.4156 2.60583C14.4434 2.56163 14.134 2.55078 11.6582 2.55078H11.661ZM10.8434 4.19309C11.0861 4.19272 11.3569 4.19309 11.661 4.19309C14.0943 4.19309 14.3827 4.20183 15.3436 4.24549C16.2321 4.28613 16.7144 4.43459 17.0356 4.55935C17.4609 4.72448 17.7641 4.92197 18.0829 5.24102C18.4019 5.55999 18.5993 5.86373 18.7649 6.28905C18.8896 6.60984 19.0383 7.09211 19.0787 7.98066C19.1224 8.94138 19.1319 9.2299 19.1319 11.6621C19.1319 14.0942 19.1224 14.3828 19.0787 15.3435C19.0381 16.232 18.8896 16.7143 18.7649 17.0352C18.5997 17.4605 18.4019 17.7633 18.0829 18.0821C17.764 18.4011 17.4611 18.5984 17.0356 18.7637C16.7147 18.889 16.2321 19.0371 15.3436 19.0777C14.3828 19.1214 14.0943 19.1308 11.661 19.1308C9.22755 19.1308 8.93911 19.1214 7.97848 19.0777C7.08994 19.0367 6.60766 18.8882 6.28615 18.7635C5.86092 18.5983 5.55708 18.4009 5.23812 18.0819C4.91915 17.7629 4.72176 17.4599 4.55617 17.0344C4.43141 16.7135 4.28277 16.2313 4.24231 15.3427C4.19866 14.382 4.18991 14.0935 4.18991 11.6598C4.18991 9.22608 4.19866 8.9391 4.24231 7.97838C4.28296 7.08983 4.43141 6.60756 4.55617 6.28631C4.7214 5.861 4.91915 5.55725 5.23821 5.23829C5.55727 4.91932 5.86092 4.72184 6.28624 4.55634C6.60748 4.43103 7.08994 4.28294 7.97848 4.24211C8.81918 4.20411 9.14498 4.19272 10.8434 4.19081V4.19309ZM16.5256 5.70625C15.9219 5.70625 15.4321 6.19564 15.4321 6.79948C15.4321 7.40324 15.9219 7.89308 16.5256 7.89308C17.1294 7.89308 17.6192 7.40324 17.6192 6.79948C17.6192 6.19573 17.1294 5.70589 16.5256 5.70589V5.70625ZM11.661 6.98403C9.07645 6.98403 6.98094 9.07954 6.98094 11.6642C6.98094 14.2488 9.07645 16.3433 11.661 16.3433C14.2456 16.3433 16.3404 14.2488 16.3404 11.6642C16.3404 9.07963 14.2454 6.98403 11.6608 6.98403H11.661ZM11.661 8.62633C13.3386 8.62633 14.6988 9.98631 14.6988 11.6642C14.6988 13.3418 13.3386 14.702 11.661 14.702C9.98331 14.702 8.62325 13.3418 8.62325 11.6642C8.62325 9.98631 9.98322 8.62633 11.661 8.62633Z" fill="white"/>
</g>
<defs>
<radialGradient id="paint0_radial_426_3056" cx="0" cy="0" r="1" gradientUnits="userSpaceOnUse" gradientTransform="translate(6.19703 25.1269) rotate(-90) scale(23.1218 21.5051)">
<stop stop-color="#FFDD55"/>
<stop offset="0.1" stop-color="#FFDD55"/>
<stop offset="0.5" stop-color="#FF543E"/>
<stop offset="1" stop-color="#C837AB"/>
</radialGradient>
<radialGradient id="paint1_radial_426_3056" cx="0" cy="0" r="1" gradientUnits="userSpaceOnUse" gradientTransform="translate(-3.90787 1.68058) rotate(78.681) scale(10.3356 42.6035)">
<stop stop-color="#3771C8"/>
<stop offset="0.128" stop-color="#3771C8"/>
<stop offset="1" stop-color="#6600FF" stop-opacity="0"/>
</radialGradient>
<clipPath id="clip0_426_3056">
<rect width="24" height="24" fill="white"/>
</clipPath>
</defs>
</svg>
