<svg width="24" height="24" viewBox="0 0 24 24" fill="none" xmlns="http://www.w3.org/2000/svg">
<path d="M6.40714 4.22321C6.40684 4.81255 6.1744 5.37763 5.76095 5.79415C5.34749 6.21066 4.78689 6.44449 4.20247 6.4442C3.61804 6.4439 3.05767 6.20951 2.64463 5.79257C2.23159 5.37564 1.99971 4.81033 2 4.22099C2.00029 3.63165 2.23273 3.06657 2.64619 2.65005C3.05965 2.23354 3.62025 1.99971 4.20467 2C4.78909 2.00029 5.34946 2.23469 5.7625 2.65162C6.17555 3.06856 6.40743 3.63387 6.40714 4.22321ZM6.47324 8.08966H2.06611V22H6.47324V8.08966ZM13.4365 8.08966H9.05142V22H13.3924V14.7004C13.3924 10.634 18.648 10.2562 18.648 14.7004V22H23V13.1894C23 6.3342 15.2214 6.58975 13.3924 9.95623L13.4365 8.08966Z" fill="#2868B2"/>
</svg>
