<svg width="24" height="24" viewBox="0 0 24 24" fill="none" xmlns="http://www.w3.org/2000/svg">
<path d="M6.40714 4.22419C6.40684 4.81352 6.1744 5.37861 5.76095 5.79512C5.34749 6.21164 4.78689 6.44547 4.20247 6.44517C3.61804 6.44488 3.05767 6.21048 2.64463 5.79355C2.23159 5.37662 1.99971 4.8113 2 4.22196C2.00029 3.63263 2.23273 3.06754 2.64619 2.65103C3.05965 2.23451 3.62025 2.00068 4.20467 2.00098C4.78909 2.00127 5.34946 2.23567 5.7625 2.6526C6.17555 3.06953 6.40743 3.63485 6.40714 4.22419ZM6.47324 8.09064H2.06611V22.001H6.47324V8.09064ZM13.4365 8.09064H9.05142V22.001H13.3924V14.7014C13.3924 10.6349 18.648 10.2572 18.648 14.7014V22.001H23V13.1904C23 6.33518 15.2214 6.59072 13.3924 9.9572L13.4365 8.09064Z" fill="#B9BABD"/>
</svg>
