<svg width="30" height="30" viewBox="0 0 30 30" fill="none" xmlns="http://www.w3.org/2000/svg">
<path fill-rule="evenodd" clip-rule="evenodd" d="M15 5.18848C13.5112 5.18848 11.775 5.22348 10.0825 5.27098L10.0138 5.27348C8.29125 5.32223 6.90125 5.36098 5.80625 5.54223C4.665 5.73098 3.7175 6.09223 2.96 6.87098C2.2 7.65223 1.86875 8.61848 1.7125 9.77473C1.5625 10.8872 1.5625 12.2972 1.5625 14.0497V15.9547C1.5625 17.7047 1.5625 19.1147 1.7125 20.2285C1.8675 21.3847 2.2 22.351 2.96 23.1322C3.7175 23.9122 4.665 24.2722 5.80625 24.461C6.90125 24.6422 8.29125 24.681 10.0138 24.7297L10.0825 24.7322C11.7762 24.7797 13.5112 24.8147 15 24.8147C16.4888 24.8147 18.225 24.7797 19.9175 24.7322L19.9862 24.7297C21.7087 24.681 23.0987 24.6422 24.1937 24.461C25.335 24.2722 26.2825 23.911 27.04 23.1322C27.8 22.351 28.1325 21.3847 28.2875 20.2285C28.4375 19.116 28.4375 17.706 28.4375 15.9535V14.0485C28.4375 12.2972 28.4375 10.8872 28.2875 9.77473C28.1325 8.61848 27.8 7.65223 27.04 6.87098C26.2825 6.09098 25.335 5.73098 24.1937 5.54223C23.0987 5.36098 21.7087 5.32223 19.985 5.27348L19.9175 5.27098C18.2788 5.22124 16.6395 5.19374 15 5.18848ZM13.59 18.3147C13.4474 18.3962 13.286 18.4387 13.1218 18.4382C12.9577 18.4376 12.7965 18.394 12.6545 18.3116C12.5125 18.2292 12.3946 18.1109 12.3127 17.9687C12.2307 17.8264 12.1876 17.6652 12.1875 17.501V12.501C12.1876 12.3368 12.2307 12.1755 12.3127 12.0333C12.3946 11.891 12.5125 11.7728 12.6545 11.6904C12.7965 11.608 12.9577 11.5643 13.1218 11.5638C13.286 11.5632 13.4474 11.6058 13.59 11.6872L17.965 14.1872C18.1084 14.2693 18.2276 14.3877 18.3104 14.5306C18.3933 14.6735 18.437 14.8358 18.437 15.001C18.437 15.1662 18.3933 15.3284 18.3104 15.4713C18.2276 15.6142 18.1084 15.7327 17.965 15.8147L13.59 18.3147Z" fill="#B9BABD"/>
</svg>
