<svg width="146" height="32" viewBox="0 0 146 32" fill="none" xmlns="http://www.w3.org/2000/svg">
<g clip-path="url(#clip0_362_6900)">
<path d="M134.184 4.91429C134.184 2.21143 136.516 0 139.869 0C143.222 0 145.554 2.08857 145.554 4.91429C145.554 7.74 143.222 9.82857 139.869 9.82857C136.37 9.82857 134.184 7.74 134.184 4.91429ZM135.058 4.91429C135.058 7.24857 136.808 9.09143 139.577 9.09143C142.347 9.09143 144.534 7.49429 144.534 5.03714C144.534 2.70286 142.347 0.86 139.577 0.86C136.808 0.86 135.058 2.58 135.058 4.91429ZM140.598 5.52857L142.201 7.61714H140.744L139.286 5.52857H138.703V7.61714H137.391V2.45714H139.869C141.181 2.45714 141.91 3.07143 141.91 3.93143C142.055 4.66857 141.472 5.28286 140.598 5.52857ZM138.557 3.31714V4.66857H139.869C140.306 4.66857 140.744 4.42286 140.744 3.93143C140.744 3.44 140.306 3.19429 139.869 3.19429L138.557 3.31714Z" fill="#A4824B"/>
<path d="M139.722 25.0635C140.159 25.4321 140.305 26.0464 140.305 27.1521C140.305 28.2578 140.159 28.8721 139.722 29.2406C139.285 29.6092 138.41 29.7321 137.244 29.7321C135.932 29.7321 135.203 29.4864 134.911 29.1178C134.474 28.7492 134.328 28.1349 134.328 27.0292C134.328 25.9235 134.474 25.3092 134.911 24.9406C135.349 24.6949 136.077 24.4492 137.244 24.4492C138.556 24.4492 139.139 24.8178 139.722 25.0635Z" fill="white"/>
<mask id="mask0_362_6900" style="mask-type:alpha" maskUnits="userSpaceOnUse" x="0" y="7" width="132" height="24">
<path d="M16.8021 9.43661C18.2598 10.788 19.1345 12.6309 19.1345 15.2109C19.1345 17.7909 18.4056 19.7566 16.8021 20.9852C15.3443 22.3366 13.3034 22.9509 10.3879 22.9509H5.43153V30.1995H0.183594V7.59375H10.3879C13.1577 7.59375 15.1985 8.20804 16.8021 9.43661ZM14.0323 15.2109C14.0323 12.7537 12.7203 11.4023 10.3879 11.4023H5.43153V18.7738H10.2421C11.5541 18.7738 12.4288 18.4052 13.0119 17.9138C13.595 17.5452 14.0323 16.5623 14.0323 15.2109Z" fill="#CEA860"/>
<path d="M56.7463 11.5252H49.7491V30.1995H44.5012V11.5252H37.5039V7.59375H56.6006V11.5252H56.7463Z" fill="#CEA860"/>
<path d="M79.926 11.5252H72.9288V30.1995H67.6808V11.5252H60.6836V7.59375H79.7802C79.926 7.59375 79.926 11.5252 79.926 11.5252Z" fill="#CEA860"/>
<path d="M101.646 11.648V7.59375H84.5898V26.1452V30.0766H89.692H101.646V26.1452H89.692L89.5462 20.8623H97.7097L98.147 16.9309H89.692V11.648H101.646Z" fill="#CEA860"/>
<path d="M126.283 16.5623L121.472 25.0395C120.889 26.1452 120.014 26.7595 118.994 26.7595C117.973 26.7595 117.099 26.1452 116.516 25.0395L111.705 16.5623V30.1995H106.457V7.59375H111.559L118.994 20.6166L126.428 7.59375H131.53V30.0766H126.428L126.283 16.5623Z" fill="#CEA860"/>
</mask>
<g mask="url(#mask0_362_6900)">
<rect x="0.183594" y="7.59375" width="131" height="23" fill="#A4824B"/>
</g>
<path d="M23.4315 30.2302L29.5541 13.5216L35.3852 30.2302H40.7789L32.4696 9.34446C31.595 7.01018 27.659 7.01018 26.7844 9.34446L18.1836 30.2302H23.4315Z" fill="white"/>
</g>
<defs>
<clipPath id="clip0_362_6900">
<rect width="145" height="32" fill="white" transform="translate(0.183594)"/>
</clipPath>
</defs>
</svg>
