<svg width="102" height="22" viewBox="0 0 102 22" fill="none" xmlns="http://www.w3.org/2000/svg">
<g clip-path="url(#clip0_4_37396)">
<path d="M93.8008 3.44C93.8008 1.548 95.4335 0 97.7805 0C100.127 0 101.76 1.462 101.76 3.44C101.76 5.418 100.127 6.88 97.7805 6.88C95.3314 6.88 93.8008 5.418 93.8008 3.44ZM94.413 3.44C94.413 5.074 95.6376 6.364 97.5764 6.364C99.5152 6.364 101.046 5.246 101.046 3.526C101.046 1.892 99.5152 0.602 97.5764 0.602C95.6376 0.602 94.413 1.806 94.413 3.44ZM98.2907 3.87L99.4132 5.332H98.3927L97.3723 3.87H96.9641V5.332H96.0457V1.72H97.7805C98.6988 1.72 99.2091 2.15 99.2091 2.752C99.3111 3.268 98.9029 3.698 98.2907 3.87ZM96.8621 2.322V3.268H97.7805C98.0866 3.268 98.3927 3.096 98.3927 2.752C98.3927 2.408 98.0866 2.236 97.7805 2.236L96.8621 2.322Z" fill="#A4824B"/>
<path d="M97.6779 17.5452C97.9841 17.8032 98.0861 18.2332 98.0861 19.0072C98.0861 19.7812 97.9841 20.2112 97.6779 20.4692C97.3718 20.7272 96.7596 20.8132 95.9432 20.8132C95.0248 20.8132 94.5146 20.6412 94.3105 20.3832C94.0044 20.1252 93.9023 19.6952 93.9023 18.9212C93.9023 18.1472 94.0044 17.7172 94.3105 17.4592C94.6166 17.2872 95.1269 17.1152 95.9432 17.1152C96.8616 17.1152 97.2698 17.3732 97.6779 17.5452Z" fill="#2A2D37"/>
<mask id="mask0_4_37396" style="mask-type:alpha" maskUnits="userSpaceOnUse" x="0" y="5" width="92" height="17">
<path d="M11.6329 6.60641C12.6534 7.55241 13.2656 8.84241 13.2656 10.6484C13.2656 12.4544 12.7554 13.8304 11.6329 14.6904C10.6125 15.6364 9.18388 16.0664 7.14302 16.0664H3.67355V21.1404H0V5.31641H7.14302C9.08184 5.31641 10.5104 5.74641 11.6329 6.60641ZM9.6941 10.6484C9.6941 8.92841 8.77571 7.98241 7.14302 7.98241H3.67355V13.1424H7.04098C7.95937 13.1424 8.57163 12.8844 8.9798 12.5404C9.38797 12.2824 9.6941 11.5944 9.6941 10.6484Z" fill="#CEA860"/>
<path d="M39.5937 8.06841H34.6957V21.1404H31.0221V8.06841H26.124V5.31641H39.4917V8.06841H39.5937Z" fill="#CEA860"/>
<path d="M55.8183 8.06841H50.9203V21.1404H47.2467V8.06841H42.3486V5.31641H55.7163C55.8183 5.31641 55.8183 8.06841 55.8183 8.06841Z" fill="#CEA860"/>
<path d="M71.0221 8.15441V5.31641H59.083V18.3024V21.0544H62.6545H71.0221V18.3024H62.6545L62.5525 14.6044H68.2669L68.573 11.8524H62.6545V8.15441H71.0221Z" fill="#CEA860"/>
<path d="M88.2695 11.5944L84.902 17.5284C84.4939 18.3024 83.8816 18.7324 83.1673 18.7324C82.453 18.7324 81.8407 18.3024 81.4326 17.5284L78.0652 11.5944V21.1404H74.3916V5.31641H77.9631L83.1673 14.4324L88.3715 5.31641H91.943V21.0544H88.3715L88.2695 11.5944Z" fill="#CEA860"/>
<path d="M16.2263 21.2244L20.5121 9.52841L24.5938 21.2244H28.3694L22.553 6.60441C21.9407 4.97041 19.1855 4.97041 18.5733 6.60441L12.5527 21.2244H16.2263Z" fill="white"/>
</mask>
<g mask="url(#mask0_4_37396)">
<rect y="5.31641" width="91.7" height="16.1" fill="#A4824B"/>
</g>
<path d="M16.2751 21.1619L20.5609 9.46591L24.6427 21.1619H28.4183L22.6018 6.54191C21.9895 4.90791 19.2344 4.90791 18.6221 6.54191L12.6016 21.1619H16.2751Z" fill="#2A2D37"/>
</g>
<defs>
<clipPath id="clip0_4_37396">
<rect width="101.76" height="21.2244" fill="white"/>
</clipPath>
</defs>
</svg>
